<svg viewBox="0 0 24 24" xmlns="http://www.w3.org/2000/svg"><g id="SVGRepo_bgCarrier" stroke-width="0"></g><g id="SVGRepo_tracerCarrier" stroke-linecap="round" stroke-linejoin="round"></g><g id="SVGRepo_iconCarrier"><path d="M20,6H13.41L11,3.59A2,2,0,0,0,9.59,3H4A2,2,0,0,0,2,5V19a2,2,0,0,0,2,2H20a2,2,0,0,0,2-2V8A2,2,0,0,0,20,6Zm-9.29,8.29a1,1,0,0,1,0,1.42,1,1,0,0,1-1.42,0l-2-2a1,1,0,0,1,0-1.42l2-2a1,1,0,0,1,1.42,1.42L9.41,13Zm6-.58-2,2a1,1,0,0,1-1.42,0,1,1,0,0,1,0-1.42L14.59,13l-1.3-1.29a1,1,0,0,1,1.42-1.42l2,2A1,1,0,0,1,16.71,13.71Z"></path></g></svg>